<?xml version="1.0" encoding="UTF-8" standalone="no"?>
<svg
   xmlns:dc="http://purl.org/dc/elements/1.1/"
   xmlns:cc="http://creativecommons.org/ns#"
   xmlns:rdf="http://www.w3.org/1999/02/22-rdf-syntax-ns#"
   xmlns:svg="http://www.w3.org/2000/svg"
   xmlns="http://www.w3.org/2000/svg"
   height="512"
   width="511.99966"
   xml:space="preserve"
   viewBox="0 0 511.99966 512"
   y="0px"
   x="0px"
   id="Capa_1"
   version="1.1"><metadata
   id="metadata55"><rdf:RDF><cc:Work
       rdf:about=""><dc:format>image/svg+xml</dc:format><dc:type
         rdf:resource="http://purl.org/dc/dcmitype/StillImage" /></cc:Work></rdf:RDF></metadata><defs
   id="defs53" />
<g
   transform="translate(-2.5e-4)"
   id="g6">
	<g
   id="g4">
		<path
   id="path2"
   d="M 505.316,6.671 C 505.291,6.647 505.264,6.626 505.24,6.602 501.005,2.405 495.169,0 489.212,0 h -0.03 c -5.149,0 -10.189,1.77 -14.189,4.979 -54.449,43.49 -109.099,88.38 -162.438,133.42 -12.97,10.951 -25.951,21.988 -38.92,33.086 L 125.557,23.409 C 110.935,8.789 87.145,8.791 72.524,23.409 L 2.197,93.737 c -2.929,2.93 -2.929,7.678 0,10.607 2.929,2.928 7.678,2.928 10.606,0 L 61.918,55.23 72.651,65.963 23.537,115.077 c -2.929,2.93 -2.929,7.678 0,10.607 1.464,1.464 3.384,2.196 5.303,2.196 1.919,0 3.839,-0.732 5.303,-2.196 L 83.258,76.57 93.991,87.303 44.876,136.417 c -2.929,2.93 -2.929,7.678 0,10.607 1.464,1.464 3.384,2.196 5.303,2.196 1.919,0 3.839,-0.732 5.303,-2.196 l 49.115,-49.115 10.733,10.733 -49.114,49.114 c -2.929,2.93 -2.929,7.678 0,10.607 1.464,1.464 3.384,2.196 5.303,2.196 1.919,0 3.839,-0.732 5.303,-2.196 l 49.114,-49.114 10.733,10.733 -49.114,49.114 c -2.929,2.93 -2.929,7.678 0,10.607 1.464,1.464 3.384,2.196 5.303,2.196 1.919,0 3.839,-0.732 5.303,-2.196 l 49.114,-49.114 10.733,10.733 -49.114,49.114 c -2.929,2.93 -2.929,7.678 0,10.607 1.464,1.464 3.384,2.196 5.303,2.196 1.919,0 3.839,-0.732 5.303,-2.196 l 49.114,-49.114 10.733,10.733 -49.114,49.114 c -2.929,2.93 -2.929,7.678 0,10.607 1.464,1.464 3.384,2.196 5.303,2.196 1.919,0 3.839,-0.732 5.303,-2.196 l 49.114,-49.114 10.734,10.734 -49.114,49.114 c -2.929,2.93 -2.929,7.678 0,10.607 1.464,1.464 3.384,2.196 5.303,2.196 1.919,0 3.839,-0.732 5.303,-2.196 l 49.115,-49.115 11.111,11.111 c -23.029,20.055 -45.939,40.229 -68.591,60.428 -0.01,0 -0.01,0 -0.01,0.011 -6.729,5.985 -14.069,12.879 -21.31,19.409 -4.436,3.209 -3.591,8.85 -1.39,11.051 0,0 0,0.01 0.01,0.01 7.22,8.74 11.21,19.9 11.21,31.439 0,13.49 -5.19,26.11 -14.619,35.53 -0.095,0.095 -22.522,22.523 -22.62,22.62 C 72.47,429.593 15.033,406.818 15,359.55 c 0.02,-28.697 23.197,-52.399 52.479,-52.42 15.949,0.01 30.839,7.11 40.849,19.46 2.715,3.346 7.7,3.708 10.86,0.84 0.04,-0.03 0.07,-0.06 0.11,-0.1 l 0.07,-0.061 c 3.513,-3.158 3.265,-8.849 -0.66,-11.66 -12.82,-14.92 -31.47,-23.479 -51.179,-23.479 h -0.1 c -37.498,0 -67.472,30.535 -67.428,67.42 -0.033,27.794 16.952,52.344 42.079,62.55 14.92,6.042 31.264,6.458 46.028,1.725 C 74.036,467.601 106.787,512 152.307,512 h 0.08 c 37.196,0 67.51,-30.112 67.469,-67.46 0.02,-17.75 -6.82,-34.5 -19.23,-47.181 0.007,-0.008 15.314,-17.409 15.314,-17.409 27.02,-30.067 53.747,-60.271 80.15,-90.548 l 11.3,11.3 -49.114,49.114 c -2.929,2.93 -2.929,7.678 0,10.607 1.465,1.464 3.385,2.196 5.304,2.196 1.919,0 3.839,-0.732 5.304,-2.196 l 49.114,-49.114 10.733,10.733 -49.114,49.114 c -2.929,2.93 -2.929,7.678 0,10.607 1.465,1.464 3.385,2.196 5.304,2.196 1.919,0 3.839,-0.732 5.304,-2.196 l 49.114,-49.114 10.732,10.732 -49.114,49.114 c -2.929,2.93 -2.929,7.678 0,10.607 1.465,1.464 3.385,2.196 5.304,2.196 1.919,0 3.839,-0.732 5.304,-2.196 l 49.114,-49.114 10.732,10.732 -49.114,49.115 c -2.929,2.93 -2.929,7.678 0,10.607 1.465,1.464 3.385,2.196 5.304,2.196 1.919,0 3.839,-0.732 5.304,-2.196 l 49.114,-49.115 10.733,10.733 -49.114,49.114 c -2.929,2.93 -2.929,7.678 0,10.607 1.465,1.464 3.385,2.196 5.304,2.196 1.919,0 3.839,-0.732 5.304,-2.196 l 49.114,-49.114 10.732,10.732 -49.114,49.114 c -2.929,2.93 -2.929,7.678 0,10.607 1.465,1.464 3.385,2.196 5.304,2.196 1.919,0 3.839,-0.732 5.304,-2.196 l 49.114,-49.114 10.732,10.732 -49.114,49.114 c -2.929,2.93 -2.929,7.678 0,10.607 1.465,1.464 3.385,2.196 5.304,2.196 1.919,0 3.839,-0.732 5.304,-2.196 l 49.114,-49.114 10.732,10.732 -49.114,49.114 c -2.929,2.93 -2.929,7.678 0,10.607 1.465,1.464 3.385,2.196 5.304,2.196 1.919,0 3.839,-0.732 5.304,-2.196 l 54.41,-54.411 c 0.002,-0.002 0.005,-0.005 0.008,-0.007 0.003,-0.002 0.005,-0.005 0.007,-0.008 l 15.902,-15.902 c 7.083,-7.083 10.984,-16.5 10.984,-26.517 0,-10.017 -3.901,-19.434 -10.983,-26.517 L 340.352,238.205 C 397.856,171.123 453.602,103.838 507.015,36.99 514.263,27.919 513.531,14.885 505.316,6.671 Z M 72.525,44.623 83.131,34.017 c 8.772,-8.772 23.047,-8.772 31.82,0 l 147.268,147.269 c -9.501,8.162 -18.994,16.346 -28.468,24.565 z M 477.984,397.05 c 4.25,4.249 6.591,9.899 6.591,15.909 0,6.01 -2.341,11.66 -6.591,15.909 l -10.606,10.606 C 462.422,434.52 316.603,288.7 305.962,278.06 c 8.23,-9.473 16.432,-18.952 24.594,-28.437 z M 208.956,365.264 c -3.635,-2.783 -13.327,-7.601 -14.939,-21.285 -0.45,-3.779 -3.64,-6.62 -7.43,-6.62 -4.531,0 -7.984,3.935 -7.47,8.381 0.01,0 0.01,0 0.01,0 1.43,12.229 8.07,23.04 18.21,29.649 0.53,0.351 1.06,0.71 1.61,1.11 -5.202,5.935 -9.496,10.932 -14.42,16.37 -1.37,1.52 -2.07,3.569 -1.91,5.609 0.15,2.04 1.16,3.96 2.75,5.25 12.587,10.275 19.478,25.063 19.49,40.811 -0.021,28.904 -23.306,52.44 -52.499,52.46 -28.854,-0.038 -52.499,-23.293 -52.499,-52.46 0.034,-23.737 15.047,-36.449 16.2,-38.08 l 22.25,-22.25 c 12.258,-12.258 19.019,-28.842 19.019,-46.141 0.01,-12.64 -3.61,-24.85 -10.449,-35.289 5.872,-5.37 10.979,-10.135 16.91,-15.421 l 0.03,-0.04 C 326.433,142.326 482.44,17.689 485.372,16.01 c -2.011,2.011 -294.635,294.509 -295.985,296.03 -2.75,3.1 -2.46,7.85 0.63,10.59 3.106,2.766 7.863,2.442 10.59,-0.63 0.897,-1.022 293.229,-293.247 295.372,-295.39 -0.613,1.079 -121.398,154.069 -287.023,338.654 z" />
	</g>
</g>
<g
   transform="translate(-2.5e-4)"
   id="g12">
	<g
   id="g10">
		<path
   id="path8"
   d="m 94.026,333.076 c -23.657,-23.656 -64.022,-6.61 -64.02,26.511 0,10.011 3.903,19.426 10.99,26.512 7.311,7.31 16.911,10.963 26.515,10.963 9.601,0 19.205,-3.655 26.515,-10.963 14.637,-14.634 14.639,-38.388 0,-53.023 z m -10.605,42.415 c -8.773,8.769 -23.047,8.771 -31.82,0 -14.05,-14.049 -4.212,-38.387 15.91,-38.387 20.18,0.001 29.896,24.403 15.91,38.387 z" />
	</g>
</g>
<g
   transform="translate(-2.5e-4)"
   id="g18">
	<g
   id="g16">
		<path
   id="path14"
   d="m 152.361,407.051 c -15.421,0 -28.668,8.854 -34.572,23.108 -5.933,14.324 -2.845,29.995 8.058,40.896 7.242,7.24 16.571,11.036 26.205,11.036 4.867,0 9.813,-0.97 14.603,-2.954 14.313,-5.93 23.205,-19.186 23.205,-34.595 -0.001,-20.672 -16.822,-37.491 -37.499,-37.491 z m 8.552,58.229 c -6.71,2.778 -16.659,2.969 -24.462,-4.832 -7.807,-7.806 -7.6,-17.799 -4.805,-24.549 2.773,-6.695 9.671,-13.849 20.714,-13.849 12.406,0 22.499,10.09 22.499,22.492 0,11.03 -7.204,17.945 -13.946,20.738 z" />
	</g>
</g>
<g
   transform="translate(-2.5e-4)"
   id="g20">
</g>
<g
   transform="translate(-2.5e-4)"
   id="g22">
</g>
<g
   transform="translate(-2.5e-4)"
   id="g24">
</g>
<g
   transform="translate(-2.5e-4)"
   id="g26">
</g>
<g
   transform="translate(-2.5e-4)"
   id="g28">
</g>
<g
   transform="translate(-2.5e-4)"
   id="g30">
</g>
<g
   transform="translate(-2.5e-4)"
   id="g32">
</g>
<g
   transform="translate(-2.5e-4)"
   id="g34">
</g>
<g
   transform="translate(-2.5e-4)"
   id="g36">
</g>
<g
   transform="translate(-2.5e-4)"
   id="g38">
</g>
<g
   transform="translate(-2.5e-4)"
   id="g40">
</g>
<g
   transform="translate(-2.5e-4)"
   id="g42">
</g>
<g
   transform="translate(-2.5e-4)"
   id="g44">
</g>
<g
   transform="translate(-2.5e-4)"
   id="g46">
</g>
<g
   transform="translate(-2.5e-4)"
   id="g48">
</g>
</svg>